inDegrees=no
num_controls=7
num_derivatives=13
num_iterations=204
num_multipliers=7
num_parameters=0
num_slacks=7
num_states=26
objective=0.509048
objective_accelerations=0.040786
objective_balance=0.003586
objective_effort=0.029665
objective_height=0.322591
objective_ligament=0.112420
solver_duration=2870.732567
status=Solve_Succeeded
success=true
DataType=double
version=3
OpenSimVersion=4.5
endheader
time	/jointset/ground_pelvis/pelvis_tilt/value	/jointset/ground_pelvis/pelvis_tx/value	/jointset/ground_pelvis/pelvis_ty/value	/jointset/hip_l/hip_flexion_l/value	/jointset/hip_l/hip_adduction_l/value	/jointset/hip_l/hip_rotation_l/value	/jointset/back/lumbar_extension/value	/jointset/patellofemoral_l/patellar_flexion_l/value	/jointset/knee_l/knee_flexion_l/value	/jointset/knee_l/knee_adduction_l/value	/jointset/knee_l/knee_rotation_l/value	/jointset/ankle_l/ankle_angle_l/value	/jointset/subtalar_l/subtalar_angle_l/value	/jointset/ground_pelvis/pelvis_tilt/speed	/jointset/ground_pelvis/pelvis_tx/speed	/jointset/ground_pelvis/pelvis_ty/speed	/jointset/hip_l/hip_flexion_l/speed	/jointset/hip_l/hip_adduction_l/speed	/jointset/hip_l/hip_rotation_l/speed	/jointset/back/lumbar_extension/speed	/jointset/patellofemoral_l/patellar_flexion_l/speed	/jointset/knee_l/knee_flexion_l/speed	/jointset/knee_l/knee_adduction_l/speed	/jointset/knee_l/knee_rotation_l/speed	/jointset/ankle_l/ankle_angle_l/speed	/jointset/subtalar_l/subtalar_angle_l/speed	/forceset/tau_hip_flexion_l	/forceset/tau_hip_adduction_l	/forceset/tau_hip_rotation_l	/forceset/tau_knee_flexion_l	/forceset/tau_ankle_angle_l	/forceset/tau_subtalar_angle_l	/forceset/tau_lumbar_extension	lambda_cid13_p0	lambda_cid13_p1	lambda_cid13_p2	lambda_cid13_p3	lambda_cid13_p4	lambda_cid13_p5	lambda_cid14_p0	/jointset/ground_pelvis/pelvis_tilt/accel	/jointset/ground_pelvis/pelvis_tx/accel	/jointset/ground_pelvis/pelvis_ty/accel	/jointset/hip_l/hip_flexion_l/accel	/jointset/hip_l/hip_adduction_l/accel	/jointset/hip_l/hip_rotation_l/accel	/jointset/back/lumbar_extension/accel	/jointset/patellofemoral_l/patellar_flexion_l/accel	/jointset/knee_l/knee_flexion_l/accel	/jointset/knee_l/knee_adduction_l/accel	/jointset/knee_l/knee_rotation_l/accel	/jointset/ankle_l/ankle_angle_l/accel	/jointset/subtalar_l/subtalar_angle_l/accel	gamma_cid13_p0	gamma_cid13_p1	gamma_cid13_p2	gamma_cid13_p3	gamma_cid13_p4	gamma_cid13_p5	gamma_cid14_p0
1	-0.1567826851887004	-0.07234623410617477	0.725124935071953	1.250490667224109	-0.3317375265284742	0.01800372721771062	-0.9599307347953877	1.199662526976109	1.199662526976444	-0.09093057884004903	-0.174373880905776	0.1875114144552381	0.02370544369536467	0.1164969705459508	0.02037575409994881	0.06917067816938262	-0.3043648875344157	0.003187126895857554	-0.06971390395745483	0.0003597666013716254	-0.17818161867568	-0.1781816186756821	0.006870606301684263	0.00696983040133699	0.001016337291838962	0.005349158900151731	-0.402252260125782	0.04299053568440276	-0.003936839540110106	-0.2823450725248104	0.04326529988865469	0.02948407631793242	0.4352333597086523	-36.39793450229997	-6.210416688619134	0.2827931329074809	14.80445838058263	-785.5940503057038	-54.95286156505784	-1.084277655852124	1.123281399038256	0.02585807755201389	1.275936689028538	-4.646282156543532	0.1327215765180492	-1.737498991232379	0.04911226122677986	-4.378322569884611	-4.378322569884561	0.2492833886045233	0.1502454201117605	-1.104287922025526	-0.2312785538511266	-1.207424062974841e-08	-8.630284692600816e-09	6.331253625537906e-08	8.779387754172857e-09	-2.595870384558874e-08	6.329028161474669e-08	-1.41318008545957e-08
1.01	-0.1555622034516018	-0.07214091480886968	0.7258802088181892	1.247215715962584	-0.3316983448720734	0.01721937027325039	-0.9599221389200973	1.197662488721525	1.197662488721016	-0.09084788505246263	-0.1742960253968648	0.1874669747353515	0.02374841869524679	0.1275798529961296	0.02071698484825287	0.08187270390222431	-0.3506064383130648	0.00465373665152901	-0.08714271717883733	0.001557986708444341	-0.2217914712658505	-0.2217914712658589	0.009667327441282469	0.008592524354598617	-0.009864576947844636	0.003265909757032002	-0.403293030272584	0.04334099038525242	-0.003981360188068403	-0.2814320181608694	0.04276547372924284	0.02973151525995569	0.4368680877601235	-36.57077527352934	-6.307323736710233	0.3207534982627213	14.38542139898294	-786.3112775127291	-55.0223459747485	-1.116577716996014	1.097861732321652	0.04259029383554926	1.265624445809104	-4.61025474917964	0.1543044201514701	-1.743374785150384	0.1849636240251941	-4.347128584301278	-4.347128584302312	0.2947335599526372	0.1669884522388496	-1.074038462746742	-0.1938447097156341	-1.820639500871923e-08	-1.851998117087703e-08	8.486469812940925e-08	1.393267861453739e-08	-2.992648575454465e-08	7.326620923087959e-08	-1.931208991674706e-08
1.02	-0.1542314788771343	-0.07193131626000861	0.7267621606078329	1.243478916551156	-0.3316443623691033	0.01626116473707819	-0.9598956034961049	1.195227389544896	1.195227389543533	-0.09073725063681427	-0.1742022015345581	0.1873149168155071	0.02377116188066311	0.1385455380188607	0.02123160441114686	0.09450628685094058	-0.396734517517883	0.006147296209581911	-0.1044836223025846	0.003947676358615006	-0.2651938030847392	-0.2651938030847549	0.01245873191348804	0.01016350108007597	-0.0205073026998034	0.001302796006983003	-0.4043338004193337	0.04369144508613045	-0.004025880836071978	-0.2805189637969222	0.04226564756983236	0.02997895420201445	0.4385028158116396	-36.75535603857223	-6.400932947165764	0.3567690568329098	14.01920824746709	-787.1816075958818	-55.08061144369812	-1.156492433106804	1.099841913548594	0.06053584047012192	1.262248132203471	-4.623587841777383	0.1381115369942875	-1.719917371705451	0.2874061698462009	-4.336818415628211	-4.336818415628377	0.2482200551260329	0.1399019745547814	-1.056650224480368	-0.207251475236968	-2.212258341587329e-08	-2.845117793825307e-08	1.01147381440244e-07	1.602300064497362e-08	-3.566336373910258e-08	7.50002922193179e-08	-2.266121795589772e-08
1.03	-0.152792086209237	-0.07171576382488327	0.7277700758724011	1.239281782640974	-0.3315752803452816	0.0151299659528172	-0.9598393362891665	1.192358977507707	1.192358977507696	-0.09059880394605987	-0.174092926964807	0.187057293599877	0.02377478640997653	0.1492717806738293	0.02190188668314937	0.107062153080238	-0.4426335921079437	0.007678363199540571	-0.1217457436380382	0.007494177084674264	-0.3084865152976785	-0.3084865152977147	0.01522671447354953	0.01168475713421211	-0.03101015606447655	-0.0005643309703357099	-0.4044140653895906	0.04392702602182518	-0.004086585764251051	-0.2800566547641349	0.04250359727180398	0.0301934484458422	0.4393540945269263	-36.6803899251905	-6.521991630604811	0.3929489908715477	13.57461471206227	-787.6022690385408	-55.22428226543325	-1.204374741261082	1.049831448578012	0.07372866016869024	1.250055602442911	-4.564269287324627	0.1619831310312541	-1.727825055976579	0.4165338315877051	-4.325179047228557	-4.3251790472315	0.2904903492673263	0.157264877181066	-1.046026997480827	-0.1744169665139122	-2.601615992535574e-08	-3.838279817796687e-08	1.173762945616585e-07	1.808206789143097e-08	-4.141829372443197e-08	7.665027475237151e-08	-2.599166067848714e-08
